# xmcd CD database file
#
# Track frame offsets:
#	150
#	59781
#	93510
#	175684
#	199421
#	242361
#	291370
#	319844
#
# Disc length: 4728 seconds
#
# Revision: 0
# Processed by: cddbd v1.5.2PL0 Copyright (c) Steve Scherf et al.
# Submitted via: CDex 1.51
#
DISCID=76127608
DTITLE=Coltrane, John - Black Pearls
DYEAR=2014
DGENRE=Jazz
TTITLE0=Black Pearls
TTITLE1=Lover Come Back To Me
TTITLE2=Sweet Sapphire Blues
TTITLE3=Do I Love You Because You're Beautiful
TTITLE4=Then I'll Be Tired Of You (bonus)
TTITLE5=Something I Dreamed Last Night (bonus)
TTITLE6=Bahia (bonus)
TTITLE7=Time After Time (bonus)
EXTD=YEAR: 2014
EXTT0=
EXTT1=
EXTT2=
EXTT3=
EXTT4=
EXTT5=
EXTT6=
EXTT7=
PLAYORDER=
